<?xml version="1.0" encoding="UTF-8"?>
<svg width="176px" height="44px" viewBox="0 0 176 44" version="1.1" xmlns="http://www.w3.org/2000/svg" xmlns:xlink="http://www.w3.org/1999/xlink">
    <!-- Generator: sketchtool 45 (43475) - http://www.bohemiancoding.com/sketch -->
    <title>D98C1A87-8111-4745-8AC3-8C0D2AD3B92E</title>
    <desc>Created with sketchtool.</desc>
    <defs></defs>
    <g id="Symbols" stroke="none" stroke-width="1" fill="none" fill-rule="evenodd">
        <g id="Logo" fill="#FFFFFF">
            <g>
                <g id="Symbol">
                    <path d="M37.4853054,43.8976062 L11.3240651,43.8976062 L11.3240651,31.5503194 L14.8713519,31.5503194 L14.8713519,40.6231876 L37.519414,40.6231876 C43.3519721,40.6231876 45.0573984,39.224738 45.0573984,34.3472186 C45.0573984,29.4359318 43.4201891,28.1053581 37.519414,28.1053581 L3.41085271e-05,28.1053581 L3.41085271e-05,24.8309395 L37.4853054,24.8309395 C43.7953829,24.8309395 48.0248403,26.4681488 48.0248403,34.3472186 C48.0248403,40.1115597 46.2170884,43.8976062 37.4853054,43.8976062" id="Fill-1"></path>
                    <path d="M48.0248062,9.51627907 C48.0248062,17.4294574 43.7953488,19.0325581 37.4852713,19.0325581 L0,19.0325581 L0,15.7581395 L37.5193798,15.7581395 C43.420155,15.7581395 45.0573643,14.3937984 45.0573643,9.51627907 C45.0573643,4.67286822 43.351938,3.2744186 37.5193798,3.2744186 L14.8713178,3.2744186 L14.8713178,12.3472868 L11.324031,12.3472868 L11.324031,-2.84217094e-14 L37.4852713,-2.84217094e-14 C46.2170543,-2.84217094e-14 48.0248062,3.82015504 48.0248062,9.51627907" id="Fill-3"></path>
                </g>
                <g id="Name" transform="translate(67.833333, 11.000000)">
                    <path d="M15.773819,15.6282018 C15.773819,20.0045882 13.2235506,21.3584343 8.68974025,21.3584343 L4.18741467,21.3584343 L0.755572093,21.3584343 L0.755572093,0.641439714 L8.31192272,0.641439714 C12.6253395,0.641439714 15.0496687,1.96380107 15.0496687,6.15127871 C15.0496687,8.63857746 14.1995792,9.92945403 12.5938547,10.5591499 C14.6718512,11.2203306 15.773819,12.7316007 15.773819,15.6282018 L15.773819,15.6282018 Z M8.34340751,18.5877725 C11.3029782,18.5877725 12.2160372,17.8006526 12.2160372,15.3763234 C12.2160372,12.9519943 11.3029782,12.0074504 8.34340751,12.0074504 L4.18741467,12.0074504 L4.18741467,18.5877725 L8.34340751,18.5877725 Z M11.5548565,6.37167227 C11.5548565,4.0103127 10.7047671,3.34913202 7.96558998,3.34913202 L4.18741467,3.34913202 L4.18741467,9.26827335 L7.93410519,9.26827335 C10.7047671,9.29975814 11.5548565,8.73303184 11.5548565,6.37167227 L11.5548565,6.37167227 Z" id="Fill-5"></path>
                    <polygon id="Fill-7" points="31.7053138 14.0854784 31.7053138 21.326981 28.2734712 21.326981 28.2734712 14.0854784 21.59838 0.609986404 25.2824157 0.609986404 29.9736501 10.5276966 34.6645696 0.609986404 38.3797753 0.609986404"></polygon>
                    <polygon id="Fill-9" points="59.8211721 0.610049374 59.8211721 3.47516565 54.1221095 3.47516565 54.1221095 21.327044 50.6905818 21.327044 50.6905818 3.47516565 45.0233188 3.47516565 45.0233188 0.610049374"></polygon>
                    <path d="M83.4030941,10.9685152 C83.4030941,17.7692308 81.8288544,21.6733453 74.8077453,21.6733453 C67.7866361,21.6733453 66.2123964,17.7692308 66.2123964,10.9685152 C66.2123964,4.16779964 67.7866361,0.263685152 74.8077453,0.263685152 C81.8288544,0.232200358 83.4030941,4.13631485 83.4030941,10.9685152 M69.7701782,10.9685152 C69.7701782,16.4783542 70.6835521,18.650805 74.8077453,18.650805 C78.9325682,18.650805 79.8453123,16.509839 79.8453123,10.9685152 C79.8453123,5.42719141 78.9325682,3.2862254 74.8077453,3.2862254 C70.6835521,3.2862254 69.7701782,5.42719141 69.7701782,10.9685152" id="Fill-11"></path>
                    <polygon id="Fill-13" points="103.836852 0.610049374 103.836852 16.6987792 95.808229 0.610049374 91.526297 0.610049374 91.526297 21.327044 94.8322004 21.327044 94.8322004 5.55316208 102.703399 21.327044 107.142755 21.327044 107.142755 0.610049374"></polygon>
                </g>
            </g>
        </g>
    </g>
</svg>
